<?xml version="1.0" encoding="utf-8"?>
<!-- Generator: Adobe Illustrator 16.0.0, SVG Export Plug-In . SVG Version: 6.00 Build 0)  -->
<!DOCTYPE svg PUBLIC "-//W3C//DTD SVG 1.1//EN" "http://www.w3.org/Graphics/SVG/1.1/DTD/svg11.dtd">
<svg version="1.1" id="Capa_1" xmlns="http://www.w3.org/2000/svg" xmlns:xlink="http://www.w3.org/1999/xlink" x="0px" y="0px"
	 width="317.811px" height="57.122px" viewBox="94.818 173.46 317.811 57.122"
	 enable-background="new 94.818 173.46 317.811 57.122" xml:space="preserve">
<g>
	<path id="XMLID_3_" fill="#F7F5F5" d="M319.247,192.647c-2.278-2.279-5.313-3.54-8.539-3.54c-3.223,0-6.268,1.261-8.546,3.548
		l-0.658,0.657l-0.674-0.675c-2.289-2.288-5.324-3.549-8.557-3.549c-3.225,0-6.25,1.252-8.529,3.54
		c-2.287,2.288-3.539,5.323-3.539,8.547c0,3.224,1.261,6.259,3.549,8.539l16.453,16.454c0.344,0.342,0.812,0.541,1.307,0.541
		c0.486,0,0.955-0.198,1.306-0.541l16.41-16.428c2.287-2.287,3.539-5.322,3.549-8.547
		C322.786,197.97,321.526,194.934,319.247,192.647z M292.139,197.168c-2.153,0-3.909,1.756-3.909,3.909
		c0,0.991-0.802,1.792-1.792,1.792c-0.991,0-1.793-0.801-1.793-1.792c0-4.125,3.359-7.484,7.484-7.484
		c0.991,0,1.793,0.802,1.793,1.792C293.93,196.375,293.129,197.168,292.139,197.168z"/>
</g>
<g>
	<path id="XMLID_2_" fill="#F7F5F5" d="M160.998,192.647c-2.278-2.279-5.313-3.54-8.539-3.54c-3.223,0-6.268,1.261-8.547,3.548
		l-0.657,0.657l-0.675-0.675c-2.289-2.288-5.323-3.549-8.557-3.549c-3.224,0-6.25,1.252-8.529,3.54
		c-2.288,2.288-3.54,5.323-3.54,8.547c0,3.224,1.261,6.259,3.549,8.539l16.454,16.454c0.343,0.342,0.811,0.541,1.306,0.541
		c0.487,0,0.955-0.198,1.306-0.541l16.41-16.428c2.288-2.287,3.54-5.322,3.549-8.547
		C164.537,197.97,163.277,194.934,160.998,192.647z M133.889,197.168c-2.153,0-3.909,1.756-3.909,3.909
		c0,0.991-0.802,1.792-1.792,1.792c-0.991,0-1.793-0.801-1.793-1.792c0-4.125,3.36-7.484,7.485-7.484
		c0.991,0,1.792,0.802,1.792,1.792C135.681,196.375,134.88,197.168,133.889,197.168z"/>
</g>
<g>
	<path id="XMLID_810_" fill="#D80027" d="M316.668,194.862c-1.947-1.947-4.542-3.025-7.298-3.025s-5.357,1.078-7.306,3.033
		l-0.562,0.562l-0.577-0.578c-1.955-1.955-4.55-3.033-7.313-3.033c-2.756,0-5.343,1.07-7.29,3.025
		c-1.955,1.955-3.025,4.55-3.025,7.305c0,2.756,1.078,5.351,3.033,7.298l14.064,14.064c0.292,0.293,0.692,0.462,1.116,0.462
		c0.416,0,0.815-0.169,1.116-0.462l14.025-14.041c1.956-1.955,3.025-4.549,3.033-7.305S318.616,196.818,316.668,194.862z
		 M293.497,198.727c-1.841,0-3.341,1.501-3.341,3.341c0,0.847-0.686,1.532-1.533,1.532c-0.846,0-1.531-0.685-1.531-1.532
		c0-3.526,2.871-6.397,6.397-6.397c0.847,0,1.532,0.685,1.532,1.532C295.028,198.049,294.344,198.727,293.497,198.727z"/>
</g>
<path fill="#FFFFFF" d="M103.851,223.24c-2.8,0-5.005-0.981-6.616-2.942c-1.611-1.961-2.417-4.659-2.417-8.093
	c0-4.02,1.046-8.585,3.137-13.696c2.091-5.11,4.878-9.814,8.362-14.111c2.767-3.434,5.619-6.116,8.557-8.044
	c2.938-1.929,5.603-2.893,7.996-2.893c1.953,0,3.467,0.558,4.541,1.672c1.074,1.115,1.611,2.706,1.611,4.773
	c0,1.823-0.432,3.569-1.294,5.237c-0.863,1.668-2.116,3.203-3.76,4.602c-0.944,0.781-1.961,1.437-3.052,1.965
	c-1.091,0.529-1.929,0.793-2.515,0.793c-0.456,0-0.936-0.354-1.44-1.062c-0.505-0.708-0.757-1.338-0.757-1.892
	c0-0.407,0.517-0.801,1.55-1.184c1.033-0.382,1.9-0.785,2.6-1.208c1.367-0.83,2.417-1.847,3.149-3.052
	c0.732-1.204,1.099-2.49,1.099-3.857c0-0.928-0.183-1.627-0.549-2.1c-0.366-0.472-0.916-0.708-1.648-0.708
	c-1.4,0-3.093,0.863-5.078,2.588c-1.986,1.726-4.061,4.134-6.226,7.227c-3.158,4.541-5.611,9.029-7.361,13.464
	c-1.75,4.436-2.625,8.33-2.625,11.682c0,1.758,0.313,3.08,0.94,3.967c0.626,0.887,1.558,1.331,2.795,1.331
	c1.644,0,3.345-0.615,5.103-1.843c1.758-1.229,3.523-3.048,5.298-5.457c0.293-0.374,0.626-0.895,1.001-1.563
	c0.537-0.928,1.009-1.392,1.416-1.392c0.456,0,0.96,0.277,1.514,0.83c0.553,0.554,0.83,1.058,0.83,1.514
	c0,0.358-0.228,0.928-0.684,1.709c-0.456,0.781-1.099,1.701-1.929,2.759c-2.328,2.93-4.643,5.159-6.946,6.689
	C108.152,222.475,105.951,223.24,103.851,223.24z"/>
<path fill="#FFFFFF" d="M166.409,219.385l5.578-18.82c0.406-1.453,0.82-2.477,1.242-3.07c0.266-0.344,0.617-0.633,1.055-0.867
	v-0.094h-0.328c-0.453,0-1.398,0.258-2.836,0.773c-1.578,0.547-2.664,0.82-3.258,0.82c-0.313,0-0.527-0.055-0.645-0.164
	s-0.176-0.297-0.176-0.563c0-0.625,0.176-1.309,0.527-2.051s0.809-1.41,1.371-2.004s1.141-1.016,1.734-1.266
	c1.359-0.531,3.203-0.945,5.531-1.242s4.859-0.445,7.594-0.445c2.938,0,5.438,0.461,7.5,1.383s3.629,2.289,4.699,4.102
	s1.605,4,1.605,6.563c0,2.578-0.512,5.176-1.535,7.793s-2.379,4.809-4.066,6.574c-3.953,4.188-9.234,6.281-15.844,6.281
	c-2.125,0-4.066-0.172-5.824-0.516s-2.918-0.766-3.48-1.266c-0.359-0.281-0.539-0.695-0.539-1.242
	C166.315,219.924,166.346,219.697,166.409,219.385z M182.248,196.064l-4.706,17.813c-0.031,0.109-0.093,0.398-0.187,0.867
	c-0.281,1.234-0.602,2.188-0.961,2.859c-0.25,0.516-0.649,1.109-1.195,1.781c0.453,0.031,0.961,0.047,1.523,0.047
	c1.359,0,2.492-0.09,3.398-0.27c0.906-0.18,1.75-0.488,2.531-0.926s1.516-1,2.203-1.688c1.297-1.328,2.293-2.867,2.988-4.617
	s1.043-3.648,1.043-5.695c0-1.875-0.282-3.578-0.845-5.109c-0.563-1.531-1.345-2.738-2.345-3.621
	C184.695,196.623,183.545,196.143,182.248,196.064z"/>
<path fill="#FFFFFF" d="M217.752,212.201l-8.555-0.047v0.586c0,1.141,0.328,2.176,0.984,3.105s1.383,1.395,2.18,1.395
	c0.813,0,1.988-0.297,3.527-0.891s3.293-1.445,5.262-2.555l0.82-0.492c0.563-0.313,0.945-0.547,1.148-0.703
	c0.922-0.578,1.5-0.867,1.734-0.867c0.281,0,0.422,0.258,0.422,0.773c0,0.563-0.102,1.203-0.305,1.922s-0.461,1.41-0.773,2.074
	s-0.625,1.137-0.938,1.418c-0.891,0.797-2.414,1.664-4.57,2.602s-4.344,1.672-6.563,2.203c-0.75,0.156-1.438,0.234-2.063,0.234
	c-2.141,0-4.098-0.434-5.871-1.301s-3.148-2.059-4.125-3.574s-1.465-3.203-1.465-5.063c0-1.531,0.32-3.219,0.961-5.063
	s1.539-3.684,2.695-5.52s2.461-3.504,3.914-5.004c1.266-1.313,2.68-2.504,4.242-3.574s3.082-1.895,4.559-2.473
	s2.832-0.867,4.066-0.867c1.938,0,3.598,0.551,4.98,1.652s2.074,2.434,2.074,3.996c0,0.688-0.125,1.438-0.375,2.25
	s-0.586,1.523-1.008,2.133c-0.438,0.656-1.086,1.297-1.945,1.922s-1.828,1.164-2.906,1.617c-1.297,0.516-2.406,0.773-3.328,0.773
	s-1.383-0.227-1.383-0.68c0-0.266,0.258-0.68,0.773-1.242c0.563-0.5,1.102-1.188,1.617-2.063c0.5-0.922,0.938-2.008,1.313-3.258
	s0.563-2.227,0.563-2.93c0-0.578-0.172-0.867-0.516-0.867c-0.547,0-1.531,0.602-2.953,1.805s-2.547,2.391-3.375,3.563
	c-0.781,1.094-1.422,2.207-1.922,3.34s-0.836,2.246-1.008,3.34h12.516c1.375,0,2.063,0.352,2.063,1.055
	c0,0.656-0.766,1.727-2.297,3.211C220.409,211.514,219.018,212.201,217.752,212.201z"/>
<path fill="#FFFFFF" d="M261.333,218.11c-1.634,1.633-3.588,2.864-5.859,3.691c-2.272,0.827-4.802,1.241-7.587,1.241
	c-3.519,0-6.284-0.717-8.294-2.152c-2.011-1.435-3.016-3.419-3.016-5.953c0-2.597,1-4.744,3-6.44c2-1.696,4.55-2.544,7.65-2.544
	c1.927,0,3.891,0.34,5.89,1.021c2.001,0.681,3.985,1.691,5.954,3.032c0.754-1.78,1.55-4.047,2.388-6.801
	c0.838-2.754,1.821-6.414,2.952-10.979c-2.617-0.356-4.602-1.104-5.952-2.246s-2.027-2.644-2.027-4.508
	c0-1.361,0.305-2.456,0.912-3.283c0.606-0.827,1.414-1.272,2.418-1.335c0.231,1.634,0.859,2.927,1.886,3.88
	c1.025,0.953,2.513,1.607,4.461,1.963c1.257-4.23,3.016-7.461,5.277-9.691s4.89-3.346,7.885-3.346c2.325,0,4.11,0.556,5.356,1.666
	c1.247,1.11,1.869,2.691,1.869,4.743c0,3.142-1.293,5.838-3.879,8.09c-2.588,2.251-6.037,3.659-10.352,4.225
	c-0.942,4.943-1.984,9.09-3.126,12.44c-1.142,3.351-2.539,6.388-4.194,9.11c1.676,1.382,3.566,2.492,5.671,3.33
	c2.104,0.837,4.193,1.309,6.267,1.414l-1.193,4.241h-0.345c-2.576,0-5.021-0.398-7.336-1.194S263.468,219.723,261.333,218.11z
	 M251.155,216.667c-1-0.75-2.098-1.328-3.293-1.734s-2.371-0.609-3.527-0.609c-1.157,0-2.094,0.238-2.813,0.715
	s-1.078,1.098-1.078,1.863c0,0.813,0.383,1.449,1.148,1.91s1.828,0.691,3.188,0.691c1.25,0,2.387-0.227,3.41-0.68
	S250.202,217.651,251.155,216.667z M264.116,195.737c1.719-0.406,3.164-1.16,4.336-2.262s1.758-2.168,1.758-3.199
	c0-0.469-0.137-0.836-0.41-1.102s-0.645-0.398-1.113-0.398c-0.938,0-1.801,0.602-2.59,1.805S264.647,193.503,264.116,195.737z"/>
<path fill="#FFFFFF" d="M347.342,195.408c0.891-0.86,1.754-1.586,2.59-2.18c0.836-0.594,1.41-0.891,1.723-0.891
	c0.484,0,0.727,0.461,0.727,1.383c0,1.078-0.121,2.246-0.363,3.504s-0.574,2.488-0.996,3.691c-0.686,2.047-1.592,4.316-2.717,6.809
	c-1.123,2.492-2.217,4.691-3.279,6.598c-0.688,1.203-1.578,2.656-2.672,4.359c-0.861,1.313-1.623,2.277-2.287,2.895
	s-1.457,1.121-2.379,1.512c-0.813,0.313-1.516,0.523-2.109,0.633c-0.719,0.125-1.297,0.188-1.734,0.188
	c-0.783,0-1.377-0.188-1.783-0.563c-0.484-0.516-0.93-1.414-1.336-2.695c-0.484-1.563-0.973-3.625-1.465-6.188
	s-0.824-4.789-0.996-6.68c-0.125-1.313-0.188-3.156-0.188-5.531c0-4.328,0.469-6.961,1.406-7.898c0.328-0.328,0.941-0.715,1.84-1.16
	s1.785-0.785,2.66-1.02c0.688-0.188,1.266-0.281,1.734-0.281c1.156,0,1.734,0.641,1.734,1.922c0,0.672-0.07,1.969-0.211,3.891
	c-0.25,3.875-0.375,6.914-0.375,9.117c0,3.844,0.166,6.727,0.498,8.648c0.189,0.922,0.332,1.563,0.428,1.922
	c0.598-0.779,1.098-1.5,1.498-2.163c0.402-0.663,0.789-1.369,1.164-2.12c0.762-1.563,1.301-2.774,1.611-3.635
	c0.994-2.453,1.779-5.032,2.354-7.736c0.373-1.923,0.801-3.298,1.283-4.126C346.061,196.924,346.607,196.19,347.342,195.408z"/>
<path fill="#FFFFFF" d="M371.529,212.201l-8.555-0.047v0.586c0,1.141,0.328,2.176,0.984,3.105s1.383,1.395,2.18,1.395
	c0.813,0,1.988-0.297,3.527-0.891s3.293-1.445,5.262-2.555l0.82-0.492c0.563-0.313,0.945-0.547,1.148-0.703
	c0.922-0.578,1.5-0.867,1.734-0.867c0.281,0,0.422,0.258,0.422,0.773c0,0.563-0.102,1.203-0.305,1.922s-0.461,1.41-0.773,2.074
	s-0.625,1.137-0.938,1.418c-0.891,0.797-2.414,1.664-4.57,2.602s-4.344,1.672-6.563,2.203c-0.75,0.156-1.438,0.234-2.063,0.234
	c-2.141,0-4.098-0.434-5.871-1.301s-3.148-2.059-4.125-3.574s-1.465-3.203-1.465-5.063c0-1.531,0.32-3.219,0.961-5.063
	s1.539-3.684,2.695-5.52s2.461-3.504,3.914-5.004c1.266-1.313,2.68-2.504,4.242-3.574s3.082-1.895,4.559-2.473
	s2.832-0.867,4.066-0.867c1.938,0,3.598,0.551,4.98,1.652s2.074,2.434,2.074,3.996c0,0.688-0.125,1.438-0.375,2.25
	s-0.586,1.523-1.008,2.133c-0.438,0.656-1.086,1.297-1.945,1.922s-1.828,1.164-2.906,1.617c-1.297,0.516-2.406,0.773-3.328,0.773
	s-1.383-0.227-1.383-0.68c0-0.266,0.258-0.68,0.773-1.242c0.563-0.5,1.102-1.188,1.617-2.063c0.5-0.922,0.938-2.008,1.313-3.258
	s0.563-2.227,0.563-2.93c0-0.578-0.172-0.867-0.516-0.867c-0.547,0-1.531,0.602-2.953,1.805s-2.547,2.391-3.375,3.563
	c-0.781,1.094-1.422,2.207-1.922,3.34s-0.836,2.246-1.008,3.34h12.516c1.375,0,2.063,0.352,2.063,1.055
	c0,0.656-0.766,1.727-2.297,3.211C374.186,211.514,372.795,212.201,371.529,212.201z"/>
<path fill="#FFFFFF" d="M392.215,198.489l0.633-1.594c-0.469,0.047-0.953,0.117-1.453,0.211c-0.313,0.063-0.742,0.094-1.289,0.094
	c-0.766,0-1.148-0.383-1.148-1.148c0-0.328,0.098-0.715,0.293-1.16s0.418-0.785,0.668-1.02c0.547-0.516,1.691-0.938,3.434-1.266
	s3.785-0.492,6.129-0.492c1.797,0,3.512,0.242,5.145,0.727s3.043,1.152,4.23,2.004s2.113,1.828,2.777,2.93s0.996,2.301,0.996,3.598
	c0,1.391-0.289,2.684-0.867,3.879s-1.398,2.238-2.461,3.129c-0.703,0.594-1.359,1.047-1.969,1.359s-1.484,0.641-2.625,0.984
	c0.297,0.547,0.559,0.969,0.785,1.266s0.605,0.711,1.137,1.242c1.406,1.266,3.422,2.414,6.047,3.445
	c0.125,0.063,0.281,0.125,0.469,0.188c-0.281,1.328-0.547,2.297-0.797,2.906s-0.641,1.273-1.172,1.992
	c-0.969,1.281-2.133,1.922-3.492,1.922c-0.75,0-1.676-0.277-2.777-0.832c-1.102-0.555-2.004-1.207-2.707-1.957
	c-0.547-0.64-1.051-1.32-1.512-2.039c-0.461-0.718-0.926-1.535-1.395-2.449s-0.871-1.804-1.207-2.671s-0.582-1.629-0.738-2.285
	c-0.031-0.125-0.047-0.305-0.047-0.539c0-0.328,0.094-0.586,0.281-0.773s0.531-0.359,1.031-0.516
	c0.703-0.25,1.281-0.527,1.734-0.832s1.023-0.777,1.711-1.418c0.781-0.859,1.395-1.862,1.84-3.011s0.668-2.308,0.668-3.48
	c0-1.391-0.318-2.472-0.957-3.246s-1.658-1.316-3.061-1.629c-1.346,4.89-2.676,9.492-3.988,13.803l-0.494,1.781
	c-0.813,2.813-1.498,4.898-2.053,6.257c-0.555,1.359-1.105,2.312-1.652,2.858c-0.549,0.546-1.4,1.085-2.557,1.617
	c-1.158,0.531-2.064,0.796-2.721,0.796c-1.283,0-1.924-0.719-1.924-2.156c0-0.594,0.176-1.613,0.527-3.059s0.895-3.336,1.629-5.672
	s1.504-4.621,2.309-6.855S391.293,200.849,392.215,198.489z"/>
<g>
	<path id="XMLID_1_" fill="#D80027" d="M158.258,194.361c-1.927-1.927-4.493-2.994-7.22-2.994c-2.726,0-5.301,1.066-7.229,3.001
		l-0.556,0.556l-0.571-0.571c-1.936-1.935-4.501-3.001-7.236-3.001c-2.727,0-5.286,1.059-7.213,2.993
		c-1.935,1.935-2.993,4.502-2.993,7.228c0,2.727,1.066,5.293,3.001,7.221l13.915,13.915c0.29,0.29,0.686,0.457,1.104,0.457
		c0.412,0,0.807-0.167,1.104-0.457l13.877-13.893c1.934-1.934,2.993-4.501,3-7.228C161.251,198.862,160.185,196.295,158.258,194.361
		z M135.333,198.184c-1.82,0-3.305,1.485-3.305,3.306c0,0.838-0.678,1.515-1.516,1.515c-0.838,0-1.517-0.677-1.517-1.515
		c0-3.488,2.841-6.329,6.33-6.329c0.838,0,1.516,0.678,1.516,1.516C136.848,197.513,136.17,198.184,135.333,198.184z"/>
</g>
</svg>
